<svg height="464pt" viewBox="0 0 464 464" width="464pt" xmlns="http://www.w3.org/2000/svg"><path d="m320 448c0 8.835938-7.164062 16-16 16h-288c-8.835938 0-16-7.164062-16-16v-432c0-8.835938 7.164062-16 16-16h233.371094c4.246094 0 8.316406 1.6875 11.316406 4.6875l54.625 54.625c3 3 4.6875 7.070312 4.6875 11.316406zm0 0" fill="#efefef"/><path d="m315.3125 59.3125-54.625-54.625c-1.359375-1.339844-2.945312-2.421875-4.6875-3.199219v46.511719c0 8.835938 7.164062 16 16 16h46.511719c-.777344-1.742188-1.859375-3.328125-3.199219-4.6875zm0 0" fill="#d6d6d6"/><path d="m240 168h-16v-40c0-35.347656-28.652344-64-64-64s-64 28.652344-64 64v40h-16v-40c0-44.183594 35.816406-80 80-80s80 35.816406 80 80zm0 0" fill="#a3a3a3"/><path d="m72 168h176c8.835938 0 16 7.164062 16 16v144c0 8.835938-7.164062 16-16 16h-176c-8.835938 0-16-7.164062-16-16v-144c0-8.835938 7.164062-16 16-16zm0 0" fill="#ffbf75"/><path d="m176 216h272c8.835938 0 16 7.164062 16 16v160c0 8.835938-7.164062 16-16 16h-272c-8.835938 0-16-7.164062-16-16v-160c0-8.835938 7.164062-16 16-16zm0 0" fill="#6a9be6"/><path d="m200 248h48c4.417969 0 8 3.582031 8 8v48c0 4.417969-3.582031 8-8 8h-48c-4.417969 0-8-3.582031-8-8v-48c0-4.417969 3.582031-8 8-8zm0 0" fill="#ffd04a"/><path d="m192 272h32v16h-32zm0 0" fill="#cca63b"/><g fill="#476899"><path d="m320 256h16v16h-16zm0 0"/><path d="m352 256h56v16h-56zm0 0"/><path d="m320 288h16v16h-16zm0 0"/><path d="m352 288h56v16h-56zm0 0"/><path d="m184 368h16v16h-16zm0 0"/><path d="m216 368h32v16h-32zm0 0"/></g><path d="m376 368h16v16h-16zm0 0" fill="#ffbf75"/><path d="m408 368h32v16h-32zm0 0" fill="#ffbf75"/><path d="m424 256h16v16h-16zm0 0" fill="#476899"/><path d="m424 288h16v16h-16zm0 0" fill="#476899"/></svg>