<svg height="472pt" viewBox="-3 0 471 472" width="472pt" xmlns="http://www.w3.org/2000/svg"><path d="m136.5 0h64v64h-80v-48c0-8.835938 7.164062-16 16-16zm0 0" fill="#ffe675"/><path d="m200.5 0h128c8.835938 0 16 7.164062 16 16v48h-144zm0 0" fill="#e6cf69"/><path d="m120.5 64h80v64h-80zm0 0" fill="#e6cf69"/><path d="m200.5 64h144v64h-144zm0 0" fill="#ccb85d"/><path d="m120.5 128h80v64h-64c-8.835938 0-16-7.164062-16-16zm0 0" fill="#ccb85d"/><path d="m200.5 128h144v48c0 8.835938-7.164062 16-16 16h-128zm0 0" fill="#b3a151"/><g fill="#ccb85d"><path d="m232.5 24h16v16h-16zm0 0"/><path d="m264.5 24h16v16h-16zm0 0"/><path d="m296.5 24h16v16h-16zm0 0"/></g><path d="m232.5 88h16v16h-16zm0 0" fill="#b3a151"/><path d="m264.5 88h16v16h-16zm0 0" fill="#b3a151"/><path d="m296.5 88h16v16h-16zm0 0" fill="#b3a151"/><path d="m232.5 152h16v16h-16zm0 0" fill="#80733a"/><path d="m264.5 152h16v16h-16zm0 0" fill="#80733a"/><path d="m296.5 152h16v16h-16zm0 0" fill="#80733a"/><path d="m16.5 320h96c8.835938 0 16 7.164062 16 16v64h-128v-64c0-8.835938 7.164062-16 16-16zm0 0" fill="#75c1ff"/><path d="m.5 400h128v16c0 8.835938-7.164062 16-16 16h-96c-8.835938 0-16-7.164062-16-16zm0 0" fill="#efefef"/><path d="m56.5 432h16v32h-16zm0 0" fill="#bcbcbc"/><path d="m32.5 456h64v16h-64zm0 0" fill="#efefef"/><path d="m184.5 320h96c8.835938 0 16 7.164062 16 16v64h-128v-64c0-8.835938 7.164062-16 16-16zm0 0" fill="#75c1ff"/><path d="m168.5 400h128v16c0 8.835938-7.164062 16-16 16h-96c-8.835938 0-16-7.164062-16-16zm0 0" fill="#efefef"/><path d="m224.5 432h16v32h-16zm0 0" fill="#bcbcbc"/><path d="m200.5 456h64v16h-64zm0 0" fill="#efefef"/><path d="m352.5 320h96c8.835938 0 16 7.164062 16 16v64h-128v-64c0-8.835938 7.164062-16 16-16zm0 0" fill="#75c1ff"/><path d="m336.5 400h128v16c0 8.835938-7.164062 16-16 16h-96c-8.835938 0-16-7.164062-16-16zm0 0" fill="#efefef"/><path d="m392.5 432h16v32h-16zm0 0" fill="#bcbcbc"/><path d="m368.5 456h64v16h-64zm0 0" fill="#efefef"/><path d="m384.5 248h-144v-32h-16v32h-144c-13.25.015625-23.984375 10.75-24 24v24h16v-24c.003906-4.417969 3.582031-7.996094 8-8h144v32h16v-32h144c4.417969.003906 7.996094 3.582031 8 8v24h16v-24c-.015625-13.25-10.75-23.984375-24-24zm0 0" fill="#898989"/><path d="m168.5 23.960938-16.039062.039062.039062 16.039062h8l8.039062-.039062zm0 0" fill="#ccb85d"/><path d="m168.5 87.960938-16.039062.039062.039062 16.039062h8l8.039062-.039062zm0 0" fill="#b3a151"/><path d="m160.5 168.039062 8.039062-.039062-.039062-16.039062-16.039062.039062.039062 16.039062zm0 0" fill="#80733a"/></svg>